<svg xmlns="http://www.w3.org/2000/svg" width="147" height="44" viewBox="0 0 147 44">
  <g id="Group_5" data-name="Group 5" transform="translate(-0.512)">
    <g id="Group_4" data-name="Group 4" transform="translate(0.512)">
      <path id="Path_1" data-name="Path 1" d="M137.142,0H9.7c-.338,0-.672.011-1.01.011a14.712,14.712,0,0,0-2.176.2A7.135,7.135,0,0,0,4.451.883,7.191,7.191,0,0,0,2.688,2.171,6.829,6.829,0,0,0,1.4,3.93,7.016,7.016,0,0,0,.724,6a14.336,14.336,0,0,0-.2,2.171c0,.326-.011.659-.011,1V34.829c0,.337.011.671.011,1.008a14.336,14.336,0,0,0,.2,2.171A7.165,7.165,0,0,0,1.4,40.082a7.107,7.107,0,0,0,3.054,3.024,7.034,7.034,0,0,0,2.066.693,16.4,16.4,0,0,0,2.176.189c.338,0,.672.011,1.01.011H138.32c.327,0,.672-.011,1-.011a16.063,16.063,0,0,0,2.176-.189,7.261,7.261,0,0,0,2.078-.693,6.865,6.865,0,0,0,1.762-1.277,6.766,6.766,0,0,0,1.964-3.82,14.314,14.314,0,0,0,.2-2.171V34.829c.011-.39.011-.784.011-1.186V10.357c0-.4,0-.8-.011-1.186v-1A14.314,14.314,0,0,0,147.3,6a7.169,7.169,0,0,0-.672-2.073A7.163,7.163,0,0,0,143.573.883a7.059,7.059,0,0,0-2.078-.671,14.428,14.428,0,0,0-2.176-.2c-.327,0-.672-.011-1-.011Z" transform="translate(-0.512)" fill="#2c2e36"/>
      <g id="Group_3" data-name="Group 3" transform="translate(0.954 0.944)">
        <path id="Path_2" data-name="Path 2" d="M20.6,53.847c-.338,0-.65,0-.988-.011a12.37,12.37,0,0,1-2.032-.178,6.3,6.3,0,0,1-1.808-.595,5.807,5.807,0,0,1-1.516-1.1,5.88,5.88,0,0,1-1.109-1.523,6.46,6.46,0,0,1-.6-1.8,12.935,12.935,0,0,1-.179-2.027c-.011-.235-.011-1-.011-1V19.965s.011-.75.011-.974a12.711,12.711,0,0,1,.179-2.027,6.579,6.579,0,0,1,.6-1.815,6.068,6.068,0,0,1,1.1-1.512,5.822,5.822,0,0,1,1.527-1.107,6.145,6.145,0,0,1,1.808-.595,13.045,13.045,0,0,1,2.044-.178l.976-.011H149.2l1,.011a12.787,12.787,0,0,1,2.021.178,6.146,6.146,0,0,1,1.819.595,5.662,5.662,0,0,1,1.516,1.107,5.993,5.993,0,0,1,1.121,1.523,5.9,5.9,0,0,1,.573,1.792,13.19,13.19,0,0,1,.19,2.05c.011.3.011.637.011.963V45.612c0,.349,0,.671-.011,1.008a14.111,14.111,0,0,1-.179,2,5.976,5.976,0,0,1-.6,1.815,5.865,5.865,0,0,1-1.1,1.512,6.089,6.089,0,0,1-1.528,1.107,6.328,6.328,0,0,1-1.819.595,12.163,12.163,0,0,1-2.033.178c-.315.011-.649.011-.976.011H20.6Z" transform="translate(-12.359 -11.745)"/>
        <g id="Group_2" data-name="Group 2" transform="translate(7.569 6.817)">
          <path id="Path_3" data-name="Path 3" d="M524.933,245.283l-2.446-6.594-2.435,6.594Zm-8.527,4.892,5.071-13.256h2.032l5.071,13.256h-1.873l-1.212-3.4h-5.982l-1.212,3.4Zm15.619-1.489v5.271h-1.637V240.231h1.637v1.5a3.381,3.381,0,0,1,1.3-1.311,3.854,3.854,0,0,1,1.884-.436,3.578,3.578,0,0,1,2.951,1.444,6.839,6.839,0,0,1,0,7.571,3.589,3.589,0,0,1-2.951,1.432,3.939,3.939,0,0,1-1.884-.424A3.493,3.493,0,0,1,532.025,248.686Zm5.576-3.471a4.712,4.712,0,0,0-.752-2.831,2.351,2.351,0,0,0-2.032-1.031,2.414,2.414,0,0,0-2.055,1.031,5.779,5.779,0,0,0,0,5.662,2.418,2.418,0,0,0,2.055,1.019,2.364,2.364,0,0,0,2.032-1.019A4.712,4.712,0,0,0,537.6,245.214Zm6.005,3.471v5.271h-1.648V240.231h1.648v1.5a3.406,3.406,0,0,1,1.291-1.311,3.879,3.879,0,0,1,1.9-.436,3.567,3.567,0,0,1,2.94,1.444,6.839,6.839,0,0,1,0,7.571,3.578,3.578,0,0,1-2.94,1.432,3.964,3.964,0,0,1-1.9-.424A3.493,3.493,0,0,1,543.606,248.686Zm5.565-3.471a4.712,4.712,0,0,0-.752-2.831,2.351,2.351,0,0,0-2.032-1.031,2.414,2.414,0,0,0-2.055,1.031,5.859,5.859,0,0,0,0,5.662,2.418,2.418,0,0,0,2.055,1.019,2.364,2.364,0,0,0,2.032-1.019A4.711,4.711,0,0,0,549.171,245.214Zm13.488,3.07v-3.558H559.73v-1.478h4.713v5.7a7.91,7.91,0,0,1-2.3,1.118,9.356,9.356,0,0,1-2.67.368,6.486,6.486,0,0,1-4.881-1.815,8.184,8.184,0,0,1,0-10.118,6.47,6.47,0,0,1,4.881-1.827,9.082,9.082,0,0,1,2.458.326,7.7,7.7,0,0,1,2.165.94v1.914a7.158,7.158,0,0,0-2.119-1.277,6.576,6.576,0,0,0-2.355-.424,4.726,4.726,0,0,0-3.67,1.353,7.36,7.36,0,0,0,0,8.091,4.726,4.726,0,0,0,3.67,1.353,8.579,8.579,0,0,0,1.706-.155A4.484,4.484,0,0,0,562.658,248.284Zm11.1-3.115h-1.626a5.772,5.772,0,0,0-2.75.459,1.645,1.645,0,0,0-.763,1.546,1.761,1.761,0,0,0,.573,1.387,2.268,2.268,0,0,0,1.561.5,2.734,2.734,0,0,0,2.188-.963,3.82,3.82,0,0,0,.821-2.565v-.368Zm1.637-.671v5.677h-1.637v-1.512a3.621,3.621,0,0,1-1.39,1.345,4.513,4.513,0,0,1-2.055.424,3.411,3.411,0,0,1-2.435-.853,3.048,3.048,0,0,1-.9-2.308,3,3,0,0,1,1.121-2.531,5.552,5.552,0,0,1,3.365-.853h2.29v-.155a2.141,2.141,0,0,0-.741-1.747,3.179,3.179,0,0,0-2.085-.614,6.914,6.914,0,0,0-1.66.2,6.519,6.519,0,0,0-1.561.614v-1.512a10.682,10.682,0,0,1,1.751-.515,7.731,7.731,0,0,1,1.637-.178,4.265,4.265,0,0,1,3.232,1.118A4.79,4.79,0,0,1,575.394,244.5Zm3.377,5.677V236.362h1.637v13.813Zm5.063,0V236.362h1.637v13.813Zm13.541-5.385v.807h-7.528a3.783,3.783,0,0,0,1.011,2.573,3.542,3.542,0,0,0,2.549.872,7.406,7.406,0,0,0,1.819-.224,8.036,8.036,0,0,0,1.763-.693v1.546a10.347,10.347,0,0,1-1.809.572,9.334,9.334,0,0,1-1.872.19,5.148,5.148,0,0,1-3.783-1.387,5.023,5.023,0,0,1-1.39-3.74,5.449,5.449,0,0,1,1.325-3.873,4.6,4.6,0,0,1,3.567-1.444,4.046,4.046,0,0,1,3.175,1.3A4.993,4.993,0,0,1,597.376,244.79Zm-7.483-.47h5.845a3.138,3.138,0,0,0-.763-2.149,2.5,2.5,0,0,0-1.941-.8,3.1,3.1,0,0,0-2.2.773A3.256,3.256,0,0,0,589.893,244.32Zm15.877-4.244.011,1.679a2.3,2.3,0,0,0-.607-.235,3,3,0,0,0-.707-.08,2.631,2.631,0,0,0-2.142.906,3.965,3.965,0,0,0-.741,2.584v5.241h-1.637v-9.94h1.637v1.546a3.332,3.332,0,0,1,1.349-1.345,4.173,4.173,0,0,1,2.009-.447,2.4,2.4,0,0,1,.38.034A3.608,3.608,0,0,1,605.77,240.076Zm10.256.155-4.376,10.861a5.968,5.968,0,0,1-1.356,2.327,2.7,2.7,0,0,1-1.763.538h-1.314v-1.364h.965a1.585,1.585,0,0,0,1.056-.326,4.016,4.016,0,0,0,.821-1.512l.3-.739-4.042-9.784h1.739L611.179,248l3.107-7.768Z" transform="translate(-483.386 -225.133)" fill="#fff"/>
          <g id="Group_1" data-name="Group 1" transform="translate(36.031)">
            <path id="Path_4" data-name="Path 4" d="M553.8,104.1l2.4-5.761h.767l2.368,5.761h-.693l-.726-1.811H555.2l-.734,1.811Zm1.617-2.354h2.277l-1.13-2.815Z" transform="translate(-553.801 -98.195)" fill="#fff"/>
            <path id="Path_5" data-name="Path 5" d="M626.067,122.846l-1.79-4.124h.677l1.411,3.333,1.411-3.333h.652l-1.782,4.124Z" transform="translate(-618.602 -116.944)" fill="#fff"/>
            <path id="Path_6" data-name="Path 6" d="M691.749,121.978a1.706,1.706,0,0,1-1.105-.346,1.107,1.107,0,0,1-.421-.9,1.086,1.086,0,0,1,.445-.914,1.915,1.915,0,0,1,1.2-.346,2.684,2.684,0,0,1,.635.074,2.655,2.655,0,0,1,.577.206v-.543a.935.935,0,0,0-.281-.741,1.174,1.174,0,0,0-.817-.255,2.224,2.224,0,0,0-.619.091,3.551,3.551,0,0,0-.677.272l-.231-.469a4.608,4.608,0,0,1,.825-.313,3,3,0,0,1,.759-.1,1.766,1.766,0,0,1,1.2.37,1.326,1.326,0,0,1,.429,1.062V121.9h-.594v-.4a2.015,2.015,0,0,1-.619.362A2.163,2.163,0,0,1,691.749,121.978Zm-.94-1.259a.687.687,0,0,0,.289.568,1.267,1.267,0,0,0,.759.214,1.9,1.9,0,0,0,.676-.115,1.557,1.557,0,0,0,.553-.362v-.774a1.727,1.727,0,0,0-.553-.247,2.345,2.345,0,0,0-.643-.082,1.291,1.291,0,0,0-.792.222A.681.681,0,0,0,690.809,120.719Z" transform="translate(-679.237 -116.002)" fill="#fff"/>
            <path id="Path_7" data-name="Path 7" d="M755.14,99.465a.423.423,0,0,1-.413-.411.377.377,0,0,1,.124-.288.4.4,0,0,1,.289-.123.423.423,0,0,1,.412.412.394.394,0,0,1-.124.288A.379.379,0,0,1,755.14,99.465Zm.305.79v4.124h-.61v-4.124Z" transform="translate(-738.547 -98.478)" fill="#fff"/>
            <path id="Path_8" data-name="Path 8" d="M787.424,96.593v5.9h-.61V96.733Z" transform="translate(-768.05 -96.593)" fill="#fff"/>
            <path id="Path_9" data-name="Path 9" d="M816.328,121.978a1.706,1.706,0,0,1-1.105-.346,1.107,1.107,0,0,1-.421-.9,1.086,1.086,0,0,1,.445-.914,1.915,1.915,0,0,1,1.2-.346,2.684,2.684,0,0,1,.635.074,2.655,2.655,0,0,1,.577.206v-.543a.935.935,0,0,0-.28-.741,1.175,1.175,0,0,0-.817-.255,2.223,2.223,0,0,0-.619.091,3.547,3.547,0,0,0-.677.272l-.231-.469a4.608,4.608,0,0,1,.825-.313,3,3,0,0,1,.759-.1,1.766,1.766,0,0,1,1.2.37,1.327,1.327,0,0,1,.429,1.062V121.9h-.594v-.4a2.015,2.015,0,0,1-.619.362A2.163,2.163,0,0,1,816.328,121.978Zm-.94-1.259a.687.687,0,0,0,.289.568,1.266,1.266,0,0,0,.759.214,1.9,1.9,0,0,0,.677-.115,1.557,1.557,0,0,0,.553-.362v-.774a1.727,1.727,0,0,0-.553-.247,2.345,2.345,0,0,0-.643-.082,1.291,1.291,0,0,0-.792.222A.68.68,0,0,0,815.388,120.719Z" transform="translate(-793.785 -116.002)" fill="#fff"/>
            <path id="Path_10" data-name="Path 10" d="M884.656,100.429a2.156,2.156,0,0,1-.165.84,2.051,2.051,0,0,1-.437.683,2.093,2.093,0,0,1-.668.444,2.03,2.03,0,0,1-.817.165,2.074,2.074,0,0,1-1.328-.477v.411h-.6V96.733l.611-.14v2.214a1.669,1.669,0,0,1,.594-.37,2.065,2.065,0,0,1,2.211.486,1.962,1.962,0,0,1,.437.675A2.1,2.1,0,0,1,884.656,100.429Zm-2.137-1.588a1.71,1.71,0,0,0-.726.156,1.425,1.425,0,0,0-.544.42v2.041a1.523,1.523,0,0,0,.553.42,1.769,1.769,0,0,0,.718.148,1.452,1.452,0,0,0,1.089-.453,1.661,1.661,0,0,0,.322-1.761,1.5,1.5,0,0,0-.808-.848A1.477,1.477,0,0,0,882.519,98.84Z" transform="translate(-854.319 -96.593)" fill="#fff"/>
            <path id="Path_11" data-name="Path 11" d="M951.922,96.593v5.9h-.61V96.733Z" transform="translate(-919.302 -96.593)" fill="#fff"/>
            <path id="Path_12" data-name="Path 12" d="M983.381,121.656a2.724,2.724,0,0,1-.726.387,2.571,2.571,0,0,1-.817.123A2.169,2.169,0,0,1,981,122a2.121,2.121,0,0,1-.676-.453,2.229,2.229,0,0,1-.454-2.354,2.27,2.27,0,0,1,.437-.675,1.969,1.969,0,0,1,1.444-.617,1.8,1.8,0,0,1,.767.165,1.824,1.824,0,0,1,.619.453,2.112,2.112,0,0,1,.412.675,2.189,2.189,0,0,1,.157.831v.189h-3.391a1.56,1.56,0,0,0,.5,1.012,1.492,1.492,0,0,0,1.048.4,2.03,2.03,0,0,0,.627-.1,1.439,1.439,0,0,0,.511-.28Zm-1.65-3.218a1.336,1.336,0,0,0-.932.362,1.532,1.532,0,0,0-.47.93h2.763a1.545,1.545,0,0,0-.47-.914A1.221,1.221,0,0,0,981.731,118.438Z" transform="translate(-945.413 -116.191)" fill="#fff"/>
            <path id="Path_13" data-name="Path 13" d="M1080.04,119.838a2.192,2.192,0,0,1,.61-1.523,2.122,2.122,0,0,1,.676-.453,2.091,2.091,0,0,1,.825-.165,2.083,2.083,0,0,1,1.485.617,2.1,2.1,0,0,1,.453.683,2.15,2.15,0,0,1,.165.839,2.172,2.172,0,0,1-.165.848,2.1,2.1,0,0,1-.453.683,2.082,2.082,0,0,1-1.485.617,2.091,2.091,0,0,1-.825-.165,2.122,2.122,0,0,1-.676-.453,2.192,2.192,0,0,1-.61-1.531Zm2.112,1.605a1.4,1.4,0,0,0,.585-.123,1.427,1.427,0,0,0,.478-.337,1.643,1.643,0,0,0,.322-.51,1.739,1.739,0,0,0,.115-.634,1.675,1.675,0,0,0-.115-.626,1.524,1.524,0,0,0-.322-.51,1.428,1.428,0,0,0-.478-.338,1.4,1.4,0,0,0-.585-.123,1.458,1.458,0,0,0-.594.123,1.541,1.541,0,0,0-.478.338,1.727,1.727,0,0,0-.322.51,1.677,1.677,0,0,0-.115.626,1.685,1.685,0,0,0,.428,1.144,1.522,1.522,0,0,0,.487.337A1.457,1.457,0,0,0,1082.152,121.443Z" transform="translate(-1037.664 -116.002)" fill="#fff"/>
            <path id="Path_14" data-name="Path 14" d="M1153.17,121.9V117.78h.61v.486a1.525,1.525,0,0,1,.569-.42,1.772,1.772,0,0,1,.734-.148,1.525,1.525,0,0,1,1.592,1.6V121.9h-.6v-2.486a1.186,1.186,0,0,0-.313-.864,1.123,1.123,0,0,0-.842-.321,1.354,1.354,0,0,0-.668.165,1.283,1.283,0,0,0-.47.469V121.9Z" transform="translate(-1104.905 -116.002)" fill="#fff"/>
            <path id="Path_15" data-name="Path 15" d="M1248.072,108.168v-2.683h-.891v-.519h.891v-1.045l.6-.156v1.2h1.246v.519h-1.246v2.527a.654.654,0,0,0,.148.477.7.7,0,0,0,.486.14,1.684,1.684,0,0,0,.306-.025,1.722,1.722,0,0,0,.3-.082v.535a1.592,1.592,0,0,1-.354.082,2.875,2.875,0,0,1-.371.025,1.207,1.207,0,0,1-.825-.255A.936.936,0,0,1,1248.072,108.168Z" transform="translate(-1191.345 -103.189)" fill="#fff"/>
            <path id="Path_16" data-name="Path 16" d="M1299.56,102.495V96.733l.61-.14v2.263a1.524,1.524,0,0,1,.569-.42,1.771,1.771,0,0,1,.734-.148,1.525,1.525,0,0,1,1.592,1.6v2.609h-.6v-2.486a1.186,1.186,0,0,0-.313-.864,1.123,1.123,0,0,0-.842-.321,1.354,1.354,0,0,0-.668.165,1.283,1.283,0,0,0-.47.469v3.037Z" transform="translate(-1239.507 -96.593)" fill="#fff"/>
            <path id="Path_17" data-name="Path 17" d="M1367.341,121.656a2.733,2.733,0,0,1-.726.387,2.578,2.578,0,0,1-.817.123,2.168,2.168,0,0,1-.842-.165,2.133,2.133,0,0,1-.677-.453,2.228,2.228,0,0,1-.453-2.354,2.277,2.277,0,0,1,.437-.675,1.968,1.968,0,0,1,1.444-.617,1.8,1.8,0,0,1,.767.165,1.828,1.828,0,0,1,.618.453,2.1,2.1,0,0,1,.412.675,2.188,2.188,0,0,1,.157.831v.189h-3.391a1.56,1.56,0,0,0,.5,1.012,1.492,1.492,0,0,0,1.048.4,2.026,2.026,0,0,0,.627-.1,1.431,1.431,0,0,0,.511-.28Zm-1.65-3.218a1.335,1.335,0,0,0-.932.362,1.531,1.531,0,0,0-.47.93h2.764a1.554,1.554,0,0,0-.47-.914A1.222,1.222,0,0,0,1365.691,118.438Z" transform="translate(-1298.454 -116.191)" fill="#fff"/>
          </g>
          <path id="Path_19" data-name="Path 19" d="M128.342,97.414H112.391a6.029,6.029,0,0,0-6.036,6.022V119.35a6.029,6.029,0,0,0,6.036,6.022h15.952a6.029,6.029,0,0,0,6.036-6.022V103.436A6.029,6.029,0,0,0,128.342,97.414Z" transform="translate(-106.355 -97.348)" fill="#e14459"/>
        </g>
      </g>
    </g>
    <path id="Path_21" data-name="Path 21" d="M145.853,128.662c-.277.015-.263.417-.263.417a8.5,8.5,0,0,0,14.806-.016s.059-.544-.521-.355a7.923,7.923,0,0,1-13.779.016.507.507,0,0,0-.242-.061Zm10.077,11.245-.847,2.517-.825-2.515h-.8l1.3,3.659h.627l.849-2.4.848,2.4h.632l1.3-3.659h-.785l-.826,2.515-.847-2.517Zm-4.5,0-1.644,3.658h.773l.317-.708.022-.053h1.708l.335.762h.794l-1.629-3.636-.014-.021Zm11.9,0v3.655h.747v-3.655Zm-21.417,0v3.66h.757v-1.486h1.709v1.486h.757v-3.66h-.757v1.477h-1.709v-1.477Zm6.728,0V142c0,.6-.3.913-.848.913s-.853-.327-.853-.938v-2.068h-.757V142a1.466,1.466,0,0,0,1.6,1.62,1.486,1.486,0,0,0,1.615-1.65V139.91Zm10.971,0v3.655h2.817V142.9h-2.071v-.906h1.377v-.667h-1.377v-.749h2v-.667Zm-7.864.923.54,1.225.036.084h-1.145l.036-.084Z" transform="translate(-130.019 -118.325)" fill="#fff"/>
  </g>
</svg>
